<?xml version="1.0" encoding="iso-8859-1"?>
<!-- Uploaded to: SVG Repo, www.svgrepo.com, Generator: SVG Repo Mixer Tools -->
<svg fill="#000000" version="1.1" id="Layer_1" xmlns="http://www.w3.org/2000/svg" xmlns:xlink="http://www.w3.org/1999/xlink" 
	 viewBox="0 0 512 512" xml:space="preserve">
<g>
	<g>
		<g>
			<path d="M255.65,280.136c-4.486,0-8.136-3.649-8.136-8.136h-15.729c0,13.159,10.705,23.865,23.865,23.865
				c13.16,0,23.864-10.705,23.864-23.865h-15.729C263.786,276.487,260.137,280.136,255.65,280.136z"/>
			<polygon points="184.349,191.864 199.786,191.864 199.786,232 215.514,232 215.514,191.864 224.35,191.864 224.35,176.136 
				184.349,176.136 			"/>
			<polygon points="288.349,191.864 295.786,191.864 295.786,232 311.515,232 311.515,191.864 328.35,191.864 328.35,176.136 
				288.349,176.136 			"/>
			<rect x="144.347" y="488.133" width="63.995" height="15.729"/>
			<path d="M471.138,391.529c-11.199-14.803-24.462-27.965-39.228-39.096v-0.297h-0.401c-16.674-12.506-35.252-22.425-54.925-29.201
				c4.935-13.629,7.628-28.322,7.628-43.633v-47.451c2.865-0.05,5.636-0.488,8.271-1.249V240h15.729v-16h-3.645
				c6.7-5.843,10.945-14.432,10.945-24c0-17.381-13.991-31.547-31.301-31.85v-34.303c14.491-10.103,24-26.881,24-45.847
				c0-30.803-25.06-55.864-55.864-55.864h-88.135V24h-15.729v8.136h-88.136c-30.803,0-55.864,25.061-55.864,55.864
				c0,18.966,9.508,35.744,24,45.847v34.288h-0.835c-17.57,0-31.864,14.294-31.864,31.864c0,9.566,4.243,18.154,10.94,24h-2.24v16
				h15.729v-9.021c2.388,0.574,4.876,0.885,7.437,0.885h0.835v48.834c0,14.768,2.539,28.952,7.19,42.148
				c-19.77,6.779-38.438,16.727-55.187,29.289h-0.139v0.104c-14.872,11.174-28.228,24.402-39.492,39.293
				C14.446,426.448,0.485,468.104,0.485,512h15.729c0-40.442,12.86-78.818,37.188-110.978c9.373-12.391,20.32-23.53,32.443-33.157
				h10.505c6.838,0,12.955,4.33,15.225,10.773c0.604,1.714,0.91,3.518,0.91,5.362v128h15.729V384c0-3.628-0.607-7.191-1.804-10.589
				c-3.34-9.481-10.899-16.638-20.116-19.674c11.23-6.701,23.154-12.214,35.539-16.375c5.008,10.014,11.294,19.282,18.652,27.583
				v77.126l64.001-16v20.318c0,5.125,4.093,9.302,9.179,9.459l-9.179,13.769v42.381h15.729V474.38l12.344-18.517h7.582
				l12.344,18.517v37.619h15.729v-42.381l-9.18-13.769c5.089-0.157,9.18-4.334,9.18-9.459v-20.318l64,16v-77.994
				c7.086-8.061,13.175-17.017,18.088-26.667c12.369,4.166,24.278,9.679,35.493,16.381c-12.624,4.238-21.747,16.174-21.747,30.208
				v128h15.729v-128c0-8.897,7.238-16.135,16.135-16.135h10.244c12.123,9.626,23.069,20.764,32.441,33.154
				c24.33,32.162,37.191,70.539,37.191,110.982h15.729C511.514,468.103,497.553,426.445,471.138,391.529z M384.214,183.893
				c8.634,0.3,15.572,7.4,15.572,16.107s-6.937,15.807-15.572,16.107V183.893z M128.485,216.136h-0.835
				c-8.897,0-16.135-7.238-16.135-16.135s7.238-16.135,16.135-16.135h0.835V216.136z M224.485,409.86l-48.272,12.067v-42.006
				c13.984,11.219,30.377,19.549,48.272,24.073V409.86z M272.485,440.136h-32.271v-32.271h32.271V440.136z M248.213,391.882v-48.017
				h16.271v47.927c-2.915,0.227-5.862,0.345-8.834,0.345C253.151,392.136,250.672,392.045,248.213,391.882z M336.484,421.927
				l-48.271-12.067v-6.178c17.904-4.69,34.294-13.156,48.271-24.49V421.927z M368.485,279.301
				c0,53.784-37.826,98.891-88.272,110.134v-45.571h8.136v-15.729h-64v15.729h8.136v45.843
				c-50.365-10.691-88.271-55.503-88.271-109.008V141.479c5.112,1.546,10.527,2.385,16.135,2.385h192
				c5.61,0,11.025-0.84,16.137-2.385V279.301z M352.348,128.136h-192c-22.13,0-40.135-18.005-40.135-40.135
				c0-22.13,18.004-40.135,40.135-40.135h192c22.13,0,40.135,18.005,40.135,40.135C392.484,110.131,374.48,128.136,352.348,128.136z
				"/>
			<rect x="248.481" y="0" width="15.729" height="16"/>
		</g>
	</g>
</g>
</svg>