<?xml version="1.0" encoding="utf-8"?><!-- Uploaded to: SVG Repo, www.svgrepo.com, Generator: SVG Repo Mixer Tools -->
<svg width="800px" height="800px" viewBox="0 0 32 32" id="saxophone_Light" data-name="saxophone/Light" xmlns="http://www.w3.org/2000/svg">
  <path id="Path-2" data-name="Path" d="M0,0H4V1H0Z" transform="translate(12)" fill="#1a1a1a"/>
  <path id="Path-4" data-name="Path" d="M0,0H10V1H8V2H4V1H0Z" transform="translate(20)" fill="#1a1a1a"/>
  <path id="Path-6" data-name="Path" d="M0,0H1V10H0Z" transform="translate(10 2)" fill="#1a1a1a"/>
  <path id="Path-8" data-name="Path" d="M0,0H4V1H0Z" transform="translate(16 2)" fill="#1a1a1a"/>
  <path id="Path-9" data-name="Path" d="M0,0H1V4H0Z" transform="translate(14 4)" fill="#1a1a1a"/>
  <path id="Path-10" data-name="Path" d="M0,0H1V12H0Z" transform="translate(16 8)" fill="#1a1a1a"/>
  <path id="Path-11" data-name="Path" d="M8,0h1V14H8V8H6V6H8V4H0V3H8Z" transform="translate(4 12)" fill="#1a1a1a"/>
  <path id="Path-12" data-name="Path" d="M0,0H1V1H4V2H8V3H4v6H1V2H0Z" transform="translate(2 16)" fill="#1a1a1a"/>
  <path id="Path-14" data-name="Path" d="M0,0H1V8H0Z" transform="translate(18 20)" fill="#1a1a1a"/>
  <path id="Path-15" data-name="Path" d="M0,0H1V1H0Z" transform="translate(6 28)" fill="#1a1a1a"/>
  <path id="Path-16" data-name="Path" d="M0,0H1V1H0Z" transform="translate(16 28)" fill="#1a1a1a"/>
  <path id="Path-17" data-name="Path" d="M0,0H8V1H0Z" transform="translate(8 30)" fill="#1a1a1a"/>
</svg>